<?xml version="1.0" encoding="UTF-8" standalone="no"?>
<svg width="452px" height="452px" viewBox="0 0 452 452" version="1.1" xmlns="http://www.w3.org/2000/svg" xmlns:xlink="http://www.w3.org/1999/xlink">
    <!-- Generator: Sketch 3.6.1 (26313) - http://www.bohemiancoding.com/sketch -->
    <title>appicon</title>
    <desc>Created with Sketch.</desc>
    <defs></defs>
    <g id="Page-1" stroke="none" stroke-width="1" fill="none" fill-rule="evenodd">
        <rect id="Rectangle-3" stroke="#FEF9F2" stroke-width="0.681700847" fill="#FEF9F2" x="1" y="1" width="450" height="450"></rect>
        <path d="M143.277596,231.648026 L130.680402,203.281896 L130.680402,406.306388 L1.02589105,406.271772 L1.05065641,393.662292 L116.610866,393.594512 L116.610866,144.254824 L150.983659,219.90229 C168.395533,197.102061 195.426859,182.459053 225.779363,182.459053 C256.221763,182.459053 283.323282,197.188926 300.729521,220.105087 L335.628037,144.254824 L335.628037,393.498022 L450.520225,393.498022 L450.520225,406.306392 L322.0786,406.306392 L322.0786,203.281896 L308.772782,232.539387 C316.482264,246.688799 320.878325,263.010406 320.878325,280.389336 C320.878325,334.474738 278.301069,378.319619 225.779363,378.319619 C173.257657,378.319619 130.680402,334.474738 130.680402,280.389336 C130.680402,262.644281 135.263638,246.001569 143.277596,231.648026 Z M1.25215634,1.37353922 L1,450.624211 L140.335513,450.57583 L140.408683,335.018322 L184.005839,430.519475 L267.972773,430.682617 L311.506889,335.106081 L311.394319,451 L451,450.633211 L450.87955,1.35778757 L284.845859,1.28915536 L226.020263,130.00042 L166.72525,1 L1.25215634,1.37353922 Z" id="Combined-Shape" stroke="#DD443C" stroke-width="0.5" fill="#DD443C"></path>
        <g id="Mic" transform="translate(183.000000, 202.000000)">
            <path d="M0.00995673214,53.8061292 C0.00995673214,53.8061292 -0.145300292,77.69205 0.7703494,86.5532407 C1.84343336,98.9268723 12.2140244,119.01565 42.6401484,120.652121 C80.9612152,117.775643 84.1332664,91.5813106 85.2802904,84.4136142 C86.4697192,78.4437272 85.2802912,53.9390706 85.2802912,53.9390706" id="Path-11" stroke="#DD443C" stroke-width="6.70960803"></path>
            <rect id="Rectangle-54" fill="#DD443C" x="13.7999669" y="0" width="58.3454485" height="107.415279" rx="44.7307202"></rect>
            <path d="M14.3749656,153.626074 L71.8748278,153.626074" id="Line" stroke="#DD443C" stroke-width="6.70960803" stroke-linecap="square" fill="#D8D8D8"></path>
            <path d="M41.8802083,124.390514 L41.8802083,153.31854" id="Line" stroke="#DD443C" stroke-width="6.70960803" stroke-linecap="square" fill="#D8D8D8"></path>
        </g>
    </g>
</svg>