<?xml version="1.0" encoding="UTF-8" standalone="no"?>
<svg width="512px" height="512px" viewBox="0 0 512 512" version="1.1" xmlns="http://www.w3.org/2000/svg" xmlns:xlink="http://www.w3.org/1999/xlink">
    <!-- Generator: Sketch 3.6.1 (26313) - http://www.bohemiancoding.com/sketch -->
    <title>ios_template_favicons</title>
    <desc>Created with Sketch.</desc>
    <defs>
        <path id="path-1" d="M158.220025,512 C100.153276,512 66.7688504,512 33.3844252,478.615575 C-1.99052627e-07,445.23115 0,411.846724 0,353.779975 L0,158.220025 C0,100.153276 -1.99052627e-07,66.7688502 33.3844252,33.3844252 C66.7688504,0 100.153276,0 158.220025,0 L353.779975,0 C411.846724,0 445.23115,0 478.615575,33.3844252 C512,66.7688502 512,100.153276 512,158.220025 L512,353.779975 C512,411.846724 512,445.23115 478.615575,478.615575 C445.23115,512 411.846724,512 353.779975,512 L158.220025,512 Z"></path>
    </defs>
    <g id="Page-1" stroke="none" stroke-width="1" fill="none" fill-rule="evenodd">
        <g id="Combined-Shape-+-Mic-Mask">
            <mask id="mask-2" fill="white">
                <use xlink:href="#path-1"></use>
            </mask>
            <use id="Mask" fill="#FEF9F2" xlink:href="#path-1"></use>
            <path d="M161.880287,264.426199 L147.547479,232.151847 L147.547479,463.148601 L25.0330061,463.115892 C11.2231998,463.112205 5.16499473,456.568447 11.5,448.5 L126.534355,448.677585 C129.301392,448.681856 131.539474,446.44713 131.539474,443.686194 L131.539474,164.992155 L170.648074,251.062161 C190.458918,225.120568 221.214559,208.460078 255.748964,208.460078 C290.38565,208.460078 321.221156,225.219401 341.025588,251.292899 L380.732344,164.992155 L380.732344,443.578345 C380.732344,446.33416 382.967252,448.574112 385.72415,448.572366 L500,448.5 C504.559884,454.331607 500.262384,463.148606 486.456673,463.148606 L365.316096,463.148606 L365.316096,232.151847 L350.177032,265.44037 C358.94871,281.539256 363.950449,300.109617 363.950449,319.882978 C363.950449,381.420146 315.506994,431.305877 255.748964,431.305877 C195.990934,431.305877 147.547479,381.420146 147.547479,319.882978 C147.547479,299.693049 152.762184,280.757341 161.880287,264.426199 Z M0.286897877,2.42500463 L0,513.572435 L158.53285,513.517389 L158.616102,382.038624 L208.219976,490.697713 L303.755689,490.883333 L353.287838,382.138475 L353.159759,514 L512,513.582676 L511.862955,2.40708274 L322.953511,2.32899454 L256.023054,148.773811 L188.558506,2 L0.286897877,2.42500463 Z" id="Combined-Shape" stroke="#DD443C" stroke-width="0.655766575" fill="#DD443C" mask="url(#mask-2)"></path>
            <g id="Mic" mask="url(#mask-2)">
                <g transform="translate(207.000000, 229.000000)">
                    <path d="M0.0113131836,60.8727273 C0.0113131836,60.8727273 -0.16509522,87.8956922 0.875297647,97.9206624 C2.09457278,111.919378 13.8779972,134.646505 48.4492122,136.4979 C91.9909345,133.243641 95.5951288,103.609091 96.8984172,95.5000293 C98.2498873,88.7460904 96.8984181,61.0231284 96.8984181,61.0231284" id="Path-11" stroke="#DD443C" stroke-width="9.83649863" fill="none"></path>
                    <rect id="Rectangle-54" stroke="none" fill="#DD443C" fill-rule="evenodd" x="15.68" y="0" width="66.2941176" height="121.522605" rx="51.1497929"></rect>
                    <path d="M16.3333333,175.090909 L81.6666667,175.090909" id="Line" stroke="#DD443C" stroke-width="9.83649863" stroke-linecap="square" fill="#D8D8D8" fill-rule="evenodd"></path>
                    <path d="M48.6733333,140.727273 L48.6733333,173.454545" id="Line" stroke="#DD443C" stroke-width="9.83649863" stroke-linecap="square" fill="#D8D8D8" fill-rule="evenodd"></path>
                </g>
            </g>
        </g>
    </g>
</svg>