<?xml version="1.0" encoding="UTF-8" standalone="no"?>
<svg width="514px" height="514px" viewBox="0 0 514 514" version="1.1" xmlns="http://www.w3.org/2000/svg" xmlns:xlink="http://www.w3.org/1999/xlink">
    <!-- Generator: Sketch 3.6.1 (26313) - http://www.bohemiancoding.com/sketch -->
    <title>mm_mic_512</title>
    <desc>Created with Sketch.</desc>
    <defs></defs>
    <g id="Page-1" stroke="none" stroke-width="1" fill="none" fill-rule="evenodd">
        <rect id="Rectangle-3" fill="#FEF9F2" x="1" y="1" width="512" height="512"></rect>
        <path d="M162.880287,263.426199 L148.547479,231.151847 L148.547479,462.148601 L1.02945826,462.109216 L1.05763573,447.76243 L132.539474,447.685311 L132.539474,163.992155 L171.648074,250.062161 C191.458918,224.120568 222.214559,207.460078 256.748964,207.460078 C291.38565,207.460078 322.221156,224.219401 342.025588,250.292899 L381.732344,163.992155 L381.732344,447.575528 L512.454123,447.575528 L512.454123,462.148606 L366.316096,462.148606 L366.316096,231.151847 L351.177032,264.44037 C359.94871,280.539256 364.950449,299.109617 364.950449,318.882978 C364.950449,380.420146 316.506994,430.305877 256.748964,430.305877 C196.990934,430.305877 148.547479,380.420146 148.547479,318.882978 C148.547479,298.693049 153.762184,279.757341 162.880287,263.426199 Z M1.28689788,1.42500463 L1,512.572435 L159.53285,512.517389 L159.616102,381.038624 L209.219976,489.697713 L304.755689,489.883333 L354.287838,381.138475 L354.159759,513 L513,512.582676 L512.862955,1.40708274 L323.953511,1.32899454 L257.023054,147.773811 L189.558506,1 L1.28689788,1.42500463 Z" id="Combined-Shape" stroke="#DD443C" stroke-width="0.655766575" fill="#DD443C"></path>
        <g id="Mic" transform="translate(208.000000, 229.000000)">
            <path d="M0.0113131836,60.8727273 C0.0113131836,60.8727273 -0.16509522,87.8956922 0.875297647,97.9206624 C2.09457278,111.919378 13.8779972,134.646505 48.4492122,136.4979 C91.9909345,133.243641 95.5951288,103.609091 96.8984172,95.5000293 C98.2498873,88.7460904 96.8984181,61.0231284 96.8984181,61.0231284" id="Path-11" stroke="#DD443C" stroke-width="9.83649863"></path>
            <rect id="Rectangle-54" fill="#DD443C" x="15.68" y="0" width="66.2941176" height="121.522605" rx="51.1497929"></rect>
            <path d="M16.3333333,175.090909 L81.6666667,175.090909" id="Line" stroke="#DD443C" stroke-width="9.83649863" stroke-linecap="square" fill="#D8D8D8"></path>
            <path d="M48.6733333,140.727273 L48.6733333,173.454545" id="Line" stroke="#DD443C" stroke-width="9.83649863" stroke-linecap="square" fill="#D8D8D8"></path>
        </g>
    </g>
</svg>